<svg xmlns="http://www.w3.org/2000/svg" version="1.1" xmlns:xlink="http://www.w3.org/1999/xlink" xmlns:svgjs="http://svgjs.com/svgjs" width="1920" height="1080" preserveAspectRatio="none" viewBox="0 0 1920 1080"><g mask="url(&quot;#SvgjsMask1003&quot;)" fill="none"><rect width="1920" height="1080" x="0" y="0" fill="rgba(255, 255, 255, 1)"></rect><path d="M947.21 176.52L1045.16 176.52L1045.16 185.83L947.21 185.83z" fill="rgba(6, 12, 75, 1)"></path><path d="M-4.22 604.14 a4.9 4.9 0 1 0 9.8 0 a4.9 4.9 0 1 0 -9.8 0z" stroke="rgba(195, 27, 27, 1)"></path><path d="M1154.58 410.93a47.92 47.92 0 1 0-34.78-89.3z" stroke="rgba(195, 27, 27, 1)"></path><path d="M875.53 564.51 a0.64 0.64 0 1 0 1.28 0 a0.64 0.64 0 1 0 -1.28 0z" fill="rgba(6, 12, 75, 1)"></path><path d="M1391.03 900.59a24.67 24.67 0 1 0-32.57-37.07z" stroke="rgba(241, 171, 0, 1)"></path><path d="M387.6 416.64L454.2 416.64L454.2 428.16L387.6 428.16z" fill="rgba(241, 171, 0, 1)"></path><path d="M984.09 355.55 a49.03 49.03 0 1 0 98.06 0 a49.03 49.03 0 1 0 -98.06 0z" stroke="rgba(6, 12, 75, 1)"></path><path d="M236.64 805.25L305.88 805.25L305.88 810.81L236.64 810.81z" fill="rgba(6, 12, 75, 1)"></path><path d="M728.7 634.27a23.79 23.79 0 1 0-47.01 7.38z" fill="rgba(241, 171, 0, 1)"></path><path d="M601.04 860L614.27 860L614.27 873.23L601.04 873.23z" fill="rgba(241, 171, 0, 1)"></path><path d="M1616.08 809.94L1690.72 809.94L1690.72 891.8L1616.08 891.8z" fill="rgba(195, 27, 27, 1)"></path><path d="M234.57 619.92L328.42 619.92L328.42 713.77L234.57 713.77z" stroke="rgba(195, 27, 27, 1)"></path><path d="M1109.66 971.5L1164.45 971.5L1164.45 1026.29L1109.66 1026.29z" fill="rgba(195, 27, 27, 1)"></path><path d="M1788.15 530.23L1814.31 530.23L1814.31 556.39L1788.15 556.39z" stroke="rgba(6, 12, 75, 1)"></path><path d="M1121.08 482.91L1210.51 482.91L1210.51 572.34L1121.08 572.34z" fill="rgba(195, 27, 27, 1)"></path><path d="M1096.89 637.17L1139.19 637.17L1139.19 652.44L1096.89 652.44z" stroke="rgba(195, 27, 27, 1)"></path><path d="M717.78 744.26L792.9 744.26L792.9 777.18L717.78 777.18z" stroke="rgba(6, 12, 75, 1)"></path><path d="M1386.03 995.19L1430.34 995.19L1430.34 1039.5L1386.03 1039.5z" stroke="rgba(6, 12, 75, 1)"></path><path d="M58.59 902.75L140.37 902.75L140.37 984.53L58.59 984.53z" fill="rgba(6, 12, 75, 1)"></path><path d="M370.98 953.94L450.99 953.94L450.99 1053.78L370.98 1053.78z" stroke="rgba(195, 27, 27, 1)"></path><path d="M885.11 894.94L980.29 894.94L980.29 1000.57L885.11 1000.57z" fill="rgba(195, 27, 27, 1)"></path><path d="M1163.96 391.64a89.57 89.57 0 1 0-133.49 119.46z" fill="rgba(241, 171, 0, 1)"></path><path d="M508.82 164.02L532.29 164.02L532.29 187.49L508.82 187.49z" stroke="rgba(195, 27, 27, 1)"></path></g><defs><mask id="SvgjsMask1003"><rect width="1920" height="1080" fill="#ffffff"></rect></mask></defs></svg>